<svg xmlns="http://www.w3.org/2000/svg" width="1670.73" height="330.8" viewBox="0 0 1670.73 330.8"><title>bloomforce logo</title><path d="M140.58,132c42.54,0,72.48,37.35,72.48,78.26,0,39.72-31.27,78.85-72.78,78.85-19.86,0-36.16-8.45-47.87-24.45v21.78H54.61V73.84h37.8v83C104.12,140.84,120.57,132,140.58,132ZM133,167.22c-24.16,0-42.54,19.12-42.54,43.14,0,23.71,18.53,43.43,42.54,43.43s42.25-19.72,42.25-43.43C175.27,186.49,157.18,167.22,133,167.22Z" fill="#fff"/><path d="M229.5,73.84h37.8V286.39H229.5Z" fill="#fff"/><path d="M283.88,210.8c0-44.17,36.16-79.3,80-79.3s80.19,35,80.19,79.3c0,44.62-36,78.71-80.19,78.71C319.45,289.51,283.88,255.56,283.88,210.8Zm80,43c24.16,0,42.39-19.13,42.39-43.14,0-23.71-18.38-43.43-42.39-43.43s-42.39,19.72-42.39,43.43C321.53,234.66,339.76,253.79,363.92,253.79Z" fill="#fff"/><path d="M454.62,210.8c0-44.17,36.16-79.3,80-79.3s80.19,35,80.19,79.3c0,44.62-36,78.71-80.19,78.71C490.19,289.51,454.62,255.56,454.62,210.8Zm80,43c24.16,0,42.39-19.13,42.39-43.14,0-23.71-18.38-43.43-42.39-43.43s-42.39,19.72-42.39,43.43C492.27,234.66,510.5,253.79,534.66,253.79Z" fill="#fff"/><path d="M669.08,159.07c5.34-17.93,21-27.27,39.28-27.27,18.53,0,32.91,8.74,40.76,25.64,9.93-17.34,26.68-25.64,46.4-25.64C836,131.8,849,166.48,849,201.61v84.78h-37.8V201.91c0-17.2-6.08-34.54-26.09-34.54-19.27,0-26.09,17.94-26.09,34.54v84.48H721.26V201.91c0-17-6.23-34.54-26.09-34.54-19.27,0-26.09,17.94-26.09,34.54v84.48h-37.8V134.61h37.8Z" fill="#fff"/><path d="M853.9,134.61h29.5V115.79c0-37.95,47-60.33,73.52-37.06v39.13c-6.23-7.56-15.12-12.59-25-12.59-6.23,0-10.52,4.29-10.52,10.52v18.82h35.42v35.73H921.2v116H883.4v-116H853.9Z" fill="#fff"/><path d="M949.93,210.8c0-44.17,36.17-79.3,80.05-79.3s80.18,35,80.18,79.3c0,44.62-36,78.71-80.18,78.71C985.51,289.51,949.93,255.56,949.93,210.8Zm80.05,43c24.16,0,42.39-19.13,42.39-43.14,0-23.71-18.38-43.43-42.39-43.43s-42.4,19.72-42.4,43.43C987.58,234.66,1005.82,253.79,1030,253.79Z" fill="#fff"/><path d="M1164.4,167.37c4-23,19.71-32.76,42.09-32.76h11.42v35h-23c-22.08,0-30.53,15.12-30.53,35.43v81.37h-37.8V134.61h37.8Z" fill="#fff"/><path d="M1329.8,188c-20-36.46-78.56-22.38-78.56,22.68,0,44.47,56.33,59.44,79.45,21.2l29.79,19.71c-42.09,67.44-146.89,39.13-146.89-40.76,0-44.17,36.17-79.3,80-79.3a78.54,78.54,0,0,1,67.15,38.39Z" fill="#fff"/><path d="M1363,210.65c0-43.87,34.69-79,78.56-79a78.57,78.57,0,0,1,78.86,79,128.28,128.28,0,0,1-1.34,16.9h-116.5c9,34.09,55.73,36.46,77.82,12.15l25.49,22.53C1456.51,315.59,1363,286.39,1363,210.65ZM1480.38,196c-9.93-39.13-68.78-39-77.67,0Z" fill="#fff"/><rect x="1542.89" y="73.84" width="60" height="60" rx="5" ry="5" fill="#00A896"/><rect x="1604.89" y="73.84" width="60" height="60" rx="5" ry="5" fill="#3BC3B4"/><rect x="1604.89" y="135.84" width="60" height="60" rx="5" ry="5" fill="#00A896"/></svg>